Coordinates
version=1
nRows=60
nColumns=12
inDegrees=yes

Units are S.I. units (second, meters, Newtons, ...)
Angles are in degrees

endheader
time	SC_y	SC_z	SC_x	AC_y	AC_z	AC_x	GH_y	GH_z	GH_yy	EL_x	PS_y
       0.0              -24.62          1.141          77.53          57.48          1.041         -15.21         -174.6           25.7          0.162          62.32          143.8
   0.02603              -24.62          1.146          77.52          57.47          1.041          -15.2         -174.6           25.7         0.1497          62.32          143.8
   0.05207              -24.62          1.151          77.52          57.47          1.042          -15.2         -174.5           25.7         0.1367          62.33          143.8
    0.0781              -24.63          1.157          77.51          57.47          1.042          -15.2         -174.5           25.7         0.1229          62.34          143.8
    0.1041              -24.63          1.164           77.5          57.47          1.042         -15.19         -174.5           25.7         0.1082          62.35          143.7
    0.1302              -24.63           1.17          77.49          57.47          1.042         -15.19         -174.5           25.7        0.09251          62.36          143.7
    0.1562              -24.63          1.178          77.48          57.46          1.042         -15.19         -174.4           25.7        0.07576          62.37          143.7
    0.1822              -24.63          1.185          77.47          57.46          1.042         -15.18         -174.4           25.7        0.05784          62.38          143.7
    0.2083              -24.64          1.194          77.45          57.46          1.042         -15.18         -174.4          25.69        0.03866          62.39          143.6
    0.2343              -24.64          1.202          77.44          57.46          1.042         -15.17         -174.4          25.69        0.01808          62.41          143.6
    0.2603              -24.64          1.212          77.43          57.45          1.042         -15.17         -174.3          25.69      -0.004021          62.42          143.6
    0.2864              -24.65          1.222          77.41          57.45          1.042         -15.16         -174.3          25.69       -0.02781          62.44          143.5
    0.3124              -24.65          1.233           77.4          57.45          1.042         -15.16         -174.3          25.69       -0.05345          62.45          143.5
    0.3384              -24.65          1.245          77.38          57.44          1.043         -15.15         -174.2          25.69       -0.08115          62.47          143.4
    0.3645              -24.66          1.258          77.36          57.44          1.043         -15.14         -174.2          25.69        -0.1111          62.49          143.4
    0.3905              -24.66          1.272          77.34          57.44          1.043         -15.14         -174.1          25.68        -0.1436          62.51          143.3
    0.4166              -24.66          1.287          77.32          57.43          1.043         -15.13         -174.1          25.68         -0.179          62.53          143.3
    0.4426              -24.67          1.303          77.29          57.43          1.043         -15.12         -174.0          25.68        -0.2175          62.56          143.2
    0.4686              -24.68          1.322          77.26          57.42          1.043         -15.11         -173.9          25.68        -0.2595          62.58          143.1
    0.4947              -24.68          1.341          77.23          57.41          1.044          -15.1         -173.9          25.67        -0.3055          62.61          143.1
    0.5207              -24.69          1.363           77.2          57.41          1.044         -15.09         -173.8          25.67         -0.356          62.64          143.0
    0.5467              -24.69          1.387          77.17           57.4          1.044         -15.08         -173.7          25.67        -0.4116          62.68          142.9
    0.5728               -24.7          1.413          77.13          57.39          1.045         -15.06         -173.6          25.66        -0.4731          62.72          142.8
    0.5988              -24.71          1.442          77.08          57.38          1.045         -15.05         -173.5          25.66        -0.5411          62.76          142.7
    0.6248              -24.72          1.475          77.04          57.37          1.045         -15.03         -173.4          25.65        -0.6168          62.81          142.6
    0.6509              -24.73          1.511          76.98          57.36          1.046         -15.01         -173.3          25.65        -0.7012          62.86          142.4
    0.6769              -24.74          1.552          76.92          57.35          1.046         -14.99         -173.1          25.64        -0.7957          62.92          142.3
    0.7029              -24.76          1.597          76.85          57.34          1.047         -14.97         -173.0          25.64        -0.9021          62.99          142.1
     0.729              -24.77          1.649          76.78          57.32          1.047         -14.94         -172.8          25.63         -1.022          63.06          141.9
     0.755              -24.79          1.708          76.69           57.3          1.048         -14.91         -172.6          25.62         -1.159          63.15          141.7
     0.781              -24.81          1.774          76.59          57.28          1.049         -14.87         -172.4          25.61         -1.315          63.25          141.4
    0.8071              -24.83          1.851          76.48          57.26           1.05         -14.83         -172.1           25.6         -1.493          63.36          141.2
    0.8331              -24.86           1.94          76.35          57.23          1.051         -14.79         -171.8          25.58           -1.7          63.49          140.8
    0.8591              -24.89          2.043          76.19           57.2          1.052         -14.73         -171.4          25.57          -1.94          63.64          140.4
    0.8852              -24.93          2.163          76.01          57.16          1.053         -14.67         -171.0          25.55          -2.22          63.82          140.0
    0.9112              -24.97          2.305           75.8          57.12          1.055         -14.59         -170.5          25.53         -2.551          64.03          139.4
    0.9372              -25.02          2.474          75.55          57.07          1.057          -14.5         -169.9          25.51         -2.944          64.28          138.8
    0.9633              -25.08          2.676          75.25          57.01          1.059          -14.4         -169.2          25.48         -3.415          64.58          138.0
    0.9893              -25.16          2.921          74.89          56.93          1.062         -14.27         -168.4          25.44         -3.985          64.94          137.1
     1.015              -25.25           3.22          74.44          56.84          1.065         -14.11         -167.3           25.4         -4.682          65.38          136.0
     1.041              -25.36          3.589          73.89          56.73           1.07         -13.92         -166.1          25.34         -5.541          65.92          134.6
     1.067              -25.49          4.049          73.21          56.59          1.075         -13.67         -164.5          25.27         -6.613           66.6          132.9
     1.093              -25.67          4.628          72.35          56.42          1.082         -13.37         -162.4          25.19         -7.963          67.45          130.7
     1.119              -25.89          5.365          71.25          56.19           1.09         -12.98         -159.9          25.08          -9.68          68.54          127.9
     1.146              -26.17          6.308          69.85          55.91          1.101         -12.48         -156.6          24.94         -11.88          69.93          124.3
     1.172              -26.54          7.518          68.06          55.54          1.115         -11.85         -152.4          24.76          -14.7          71.71          119.8
     1.198               -27.0          9.064          65.76          55.07          1.133         -11.03         -147.0          24.53          -18.3          73.99          113.9
     1.224              -27.59          11.01          62.87          54.48          1.156         -10.01         -140.2          24.25         -22.82          76.86          106.6
      1.25               -28.3          13.38          59.35          53.76          1.183          -8.76         -132.0           23.9         -28.34          80.35          97.67
     1.276              -29.12          16.12          55.27          52.93          1.215         -7.313         -122.4          23.49         -34.74          84.39          87.31
     1.302              -30.02           19.1          50.85          52.03          1.249         -5.747         -112.1          23.05         -41.66          88.77          76.09
     1.328              -30.91          22.07          46.43          51.12          1.284         -4.181         -101.7          22.62         -48.59          93.15          64.87
     1.354              -31.73          24.81          42.35          50.29          1.316         -2.734         -92.19          22.21         -54.99           97.2          54.52
      1.38              -32.45          27.18          38.83          49.57          1.343         -1.486         -83.95          21.86          -60.5          100.7          45.58
     1.406              -33.03          29.13          35.95          48.98          1.366        -0.4621         -77.18          21.58         -65.03          103.6          38.25
     1.432              -33.49          30.67          33.65          48.51          1.383         0.3523          -71.8          21.35         -68.63          105.8          32.41
     1.458              -33.86          31.88          31.85          48.14          1.397         0.9899         -67.59          21.17         -71.45          107.6          27.85
     1.484              -34.14          32.83          30.45          47.86          1.408          1.487         -64.31          21.03         -73.65          109.0          24.29
      1.51              -34.36          33.56          29.35          47.63          1.417          1.875         -61.74          20.92         -75.37          110.1          21.51
     1.536              -34.54          34.14          28.49          47.46          1.424           2.18         -59.73          20.84         -76.72          110.9          19.32
